<svg width="1320" height="820" viewBox="0 0 1320 820" fill="none" xmlns="http://www.w3.org/2000/svg">
  <rect width="1320" height="820" rx="32" fill="#F4F1EA"/>
  <circle cx="1040" cy="170" r="230" fill="#E8ECFF"/>
  <circle cx="245" cy="735" r="245" fill="#FDE8D9"/>
  <rect x="94" y="104" width="808" height="590" rx="28" fill="#FFFDF8" stroke="#DCD6CA" stroke-width="2"/>
  <rect x="94" y="104" width="808" height="54" rx="28" fill="#F8F6F0"/>
  <rect x="94" y="132" width="808" height="26" fill="#F8F6F0"/>
  <circle cx="130" cy="132" r="8" fill="#E96A45"/>
  <circle cx="158" cy="132" r="8" fill="#E7B84F"/>
  <circle cx="186" cy="132" r="8" fill="#55B779"/>
  <rect x="146" y="212" width="242" height="18" rx="9" fill="#CAC3B7"/>
  <rect x="146" y="264" width="574" height="1.5" fill="#ECE7DD"/>
  <rect x="146" y="318" width="574" height="1.5" fill="#ECE7DD"/>
  <rect x="146" y="372" width="574" height="1.5" fill="#ECE7DD"/>
  <rect x="146" y="426" width="574" height="1.5" fill="#ECE7DD"/>
  <rect x="146" y="480" width="574" height="1.5" fill="#ECE7DD"/>
  <text x="146" y="335" fill="#1C1A17" font-family="Georgia, serif" font-size="62">∫ 2x dx</text>
  <text x="146" y="407" fill="#686157" font-family="Inter, Arial, sans-serif" font-size="26">Explain the steps and verify the answer.</text>
  <rect x="552" y="412" width="242" height="166" rx="20" fill="#FBF2EA" stroke="#E96A45" stroke-width="4"/>
  <circle cx="794" cy="578" r="14" fill="#E96A45"/>
  <rect x="278" y="626" width="458" height="66" rx="18" fill="#FFFDF8" stroke="#DCD6CA" stroke-width="2"/>
  <rect x="296" y="643" width="32" height="32" rx="9" fill="#F1EEE7"/>
  <path d="M304 652H320M304 659H320M304 666H320" stroke="#575047" stroke-width="2.4" stroke-linecap="round"/>
  <rect x="340" y="643" width="32" height="32" rx="9" fill="#EAF0FF"/>
  <text x="348" y="666" fill="#476FD1" font-family="Inter, Arial, sans-serif" font-size="18" font-weight="700">⌘</text>
  <text x="388" y="665" fill="#786F64" font-family="Inter, Arial, sans-serif" font-size="20" font-weight="550">Ask about this problem...</text>
  <rect x="640" y="643" width="32" height="32" rx="9" fill="#E9F7F3"/>
  <path d="M650 653H665V668H650V653Z" stroke="#2D806C" stroke-width="2"/>
  <rect x="684" y="643" width="32" height="32" rx="9" fill="#1C1A17"/>
  <path d="M700 668V651M700 651L693 658M700 651L707 658" stroke="#FFFDF8" stroke-width="2.5" stroke-linecap="round" stroke-linejoin="round"/>
  <rect x="712" y="262" width="488" height="560" rx="30" fill="#FFFDF8" stroke="#DCD6CA" stroke-width="2"/>
  <rect x="760" y="312" width="92" height="28" rx="14" fill="#E7F3EB"/>
  <text x="779" y="332" fill="#367A57" font-family="Inter, Arial, sans-serif" font-size="15" font-weight="750">Verified</text>
  <text x="760" y="402" fill="#1C1A17" font-family="Geist, Inter, Arial, sans-serif" font-size="42" font-weight="750">Find the integral</text>
  <rect x="760" y="448" width="332" height="98" rx="18" fill="#F7F4EE" stroke="#E5DED3"/>
  <text x="836" y="510" fill="#1C1A17" font-family="Georgia, serif" font-size="40">x² + C</text>
  <rect x="760" y="596" width="356" height="16" rx="8" fill="#D8D1C6"/>
  <rect x="760" y="632" width="308" height="14" rx="7" fill="#E8E2D7"/>
  <rect x="760" y="664" width="340" height="14" rx="7" fill="#E8E2D7"/>
  <rect x="760" y="696" width="258" height="14" rx="7" fill="#E8E2D7"/>
  <rect x="760" y="752" width="146" height="38" rx="11" fill="#1C1A17"/>
  <text x="792" y="777" fill="#FFFDF8" font-family="Inter, Arial, sans-serif" font-size="15" font-weight="700">Copy answer</text>
</svg>
